<svg xmlns="http://www.w3.org/2000/svg" width="29" height="28" fill="currentColor" class="card__icon icon">
<symbol id="id" fill="currentColor" class="card__icon icon">

<path fill="#000" d="M.5 0h2.154v2.154H.5zM.5 2.154h2.154v2.154H.5zM.5 4.308h2.154v2.154H.5zM.5 6.462h2.154v2.154H.5z"/>
<path fill="#000" d="M.5 8.615h2.154v2.154H.5zM.5 10.769h2.154v2.154H.5zM.5 12.923h2.154v2.154H.5zM.5 15.077h2.154v2.154H.5zM.5 17.231h2.154v2.154H.5zM.5 19.385h2.154v2.154H.5z"/>
<path fill="#000" d="M.5 21.538h2.154v2.154H.5zM.5 23.692h2.154v2.154H.5zM.5 25.846h2.154V28H.5zM24.193 0v2.154h-2.154V0z"/>
<path fill="#000" d="M22.04 0v2.154h-2.155V0zM19.884 0v2.154H17.73V0zM17.73 0v2.154h-2.154V0z"/>
<path fill="#000" d="M15.577 0v2.154h-2.154V0zM13.423 0v2.154H11.27V0zM11.27 0v2.154H9.115V0z"/>
<path fill="#000" d="M9.116 0v2.154H6.962V0zM6.96 0v2.154H4.808V0zM4.807 0v2.154H2.653V0zM26.346 2.154v2.154h-2.154V2.154zM6.96 4.308v2.154H4.808V4.308zM6.96 2.154v2.154H4.808V2.154zM6.96 6.462v2.154H4.808V6.462zM22.039 4.308v2.154h-2.154V4.308zM22.04 2.154v2.154h-2.155V2.154z"/>
<path fill="#000" d="M22.039 6.461v2.154h-2.154V6.461zM17.73 4.307v2.154h-2.154V4.307zM17.73 2.153v2.154h-2.154V2.153zM17.73 6.461v2.154h-2.154V6.461zM22.04 8.615v2.154h-2.155V8.615zM19.884 8.615v2.154H17.73V8.615zM17.73 8.615v2.154h-2.153V8.615zM15.577 8.615v2.154h-2.154V8.615zM13.423 8.615v2.154H11.27V8.615zM11.27 8.616v2.154H9.116V8.616zM9.116 8.615v2.154H6.962V8.615zM6.961 8.615v2.154H4.807V8.615zM24.192 15.077v2.154h-2.154v-2.154z"/>
<path fill="#000" d="M22.039 15.077v2.154h-2.154v-2.154zM19.884 15.077v2.154H17.73v-2.154zM17.73 15.076v2.154h-2.154v-2.154z"/>
<path fill="#000" d="M15.577 15.077v2.154h-2.154v-2.154zM13.423 15.077v2.154h-2.154v-2.154z"/><path fill="#000" d="M11.27 15.077v2.154H9.114v-2.154z"/>
<path fill="#000" d="M9.116 15.077v2.154H6.962v-2.154zM6.96 15.077v2.154H4.808v-2.154zM24.192 17.231v2.154h-2.154v-2.154z"/>
<path fill="#000" d="M6.96 17.23v2.155H4.808V17.23zM24.192 19.385v2.154h-2.154v-2.154zM6.96 19.385v2.154H4.808v-2.154zM24.193 21.539v2.154H22.04v-2.154z"/>
<path fill="#000" d="M6.961 21.538v2.154H4.807v-2.154zM6.961 23.692v2.154H4.807v-2.154zM24.193 23.693v2.154H22.04v-2.154z"/><path fill="#000" d="M26.346 25.846V28h-2.154v-2.154z"/>
<path fill="#000" d="M24.193 25.846V28h-2.154v-2.154z"/><path fill="#000" d="M22.04 25.846V28h-2.155v-2.154zM19.884 25.846V28H17.73v-2.154zM17.73 25.845V28h-2.154v-2.154z"/>
<path fill="#000" d="M15.577 25.846V28h-2.154v-2.154zM13.423 25.846V28H11.27v-2.154zM11.27 25.846V28H9.114v-2.154z"/><path fill="#000" d="M9.116 25.846V28H6.962v-2.154zM6.96 25.846V28H4.808v-2.154zM4.807 25.846V28H2.653v-2.154zM28.5 28h-2.154v-2.154H28.5zM28.5 25.846h-2.154v-2.154H28.5z"/>
<path fill="#000" d="M28.5 23.693h-2.154v-2.154H28.5zM28.5 21.539h-2.154v-2.154H28.5zM28.5 19.385h-2.154V17.23H28.5zM28.5 17.23h-2.154v-2.153H28.5zM28.5 15.077h-2.154v-2.154H28.5zM28.5 12.923h-2.154V10.77H28.5zM28.5 10.77h-2.154V8.614H28.5z"/>
<path fill="#000" d="M28.5 8.615h-2.154V6.461H28.5zM28.5 6.461h-2.154V4.307H28.5z"/>

</symbol>
</svg>


<!--<svg width="29" height="28" viewBox="0 0 29 28" fill="currentColor" xmlns="http://www.w3.org/2000/svg">
<symbol id="id" class="card__icon icon">
  

<rect x="0.5" fill="black"/>
<rect x="0.5" y="2.15396" width="2.15385" height="2.15385" fill="black"/>
<rect x="0.5" y="4.30762" width="2.15385" height="2.15385" fill="black"/>
<rect x="0.5" y="6.46158" width="2.15385" height="2.15385" fill="black"/>
<rect x="0.5" y="8.61523" width="2.15385" height="2.15385" fill="black"/>
<rect x="0.5" y="10.7692" width="2.15385" height="2.15385" fill="black"/>
<rect x="0.5" y="12.9232" width="2.15385" height="2.15385" fill="black"/>
<rect x="0.5" y="15.0768" width="2.15385" height="2.15385" fill="black"/>
<rect x="0.5" y="17.2308" width="2.15385" height="2.15385" fill="black"/>
<rect x="0.5" y="19.3848" width="2.15385" height="2.15385" fill="black"/>
<rect x="0.5" y="21.5384" width="2.15385" height="2.15385" fill="black"/>
<rect x="0.5" y="23.6924" width="2.15385" height="2.15385" fill="black"/>
<rect x="0.5" y="25.846" width="2.15385" height="2.15385" fill="black"/>
<rect x="24.1927" width="2.15385" height="2.15385" transform="rotate(90 24.1927 0)" fill="black"/>
<rect x="22.0391" width="2.15385" height="2.15385" transform="rotate(90 22.0391 0)" fill="black"/>
<rect x="19.8842" width="2.15385" height="2.15385" transform="rotate(90 19.8842 0)" fill="black"/>
<rect x="17.7305" width="2.15385" height="2.15385" transform="rotate(90 17.7305 0)" fill="black"/>
<rect x="15.5768" width="2.15385" height="2.15385" transform="rotate(90 15.5768 0)" fill="black"/>
<rect x="13.4232" width="2.15385" height="2.15385" transform="rotate(90 13.4232 0)" fill="black"/>
<rect x="11.2695" width="2.15385" height="2.15385" transform="rotate(90 11.2695 0)" fill="black"/>
<rect x="9.11584" width="2.15385" height="2.15385" transform="rotate(90 9.11584 0)" fill="black"/>
<rect x="6.96094" width="2.15385" height="2.15385" transform="rotate(90 6.96094 0)" fill="black"/>
<rect x="4.80725" width="2.15385" height="2.15385" transform="rotate(90 4.80725 0)" fill="black"/>
<rect x="26.3463" y="2.15396" width="2.15385" height="2.15385" transform="rotate(90 26.3463 2.15396)" fill="black"/>
<rect x="6.96094" y="4.30762" width="2.15385" height="2.15385" transform="rotate(90 6.96094 4.30762)" fill="black"/>
<rect x="6.96094" y="2.15396" width="2.15385" height="2.15385" transform="rotate(90 6.96094 2.15396)" fill="black"/>
<rect x="6.96094" y="6.46158" width="2.15385" height="2.15385" transform="rotate(90 6.96094 6.46158)" fill="black"/>
<rect x="22.0391" y="4.30762" width="2.15385" height="2.15385" transform="rotate(90 22.0391 4.30762)" fill="black"/>
<rect x="22.0391" y="2.15396" width="2.15385" height="2.15385" transform="rotate(90 22.0391 2.15396)" fill="black"/>
<rect x="22.0391" y="6.46158" width="2.15385" height="2.15385" transform="rotate(90 22.0391 6.46158)" fill="black"/>
<rect x="17.7305" y="4.30762" width="2.15385" height="2.15385" transform="rotate(90 17.7305 4.30762)" fill="black"/>
<rect x="17.7305" y="2.15396" width="2.15385" height="2.15385" transform="rotate(90 17.7305 2.15396)" fill="black"/>
<rect x="17.7305" y="6.46158" width="2.15385" height="2.15385" transform="rotate(90 17.7305 6.46158)" fill="black"/>
<rect x="22.0391" y="8.61523" width="2.15385" height="2.15385" transform="rotate(90 22.0391 8.61523)" fill="black"/>
<rect x="19.8842" y="8.61523" width="2.15385" height="2.15385" transform="rotate(90 19.8842 8.61523)" fill="black"/>
<rect x="17.7305" y="8.61523" width="2.15385" height="2.15385" transform="rotate(90 17.7305 8.61523)" fill="black"/>
<rect x="15.5768" y="8.61523" width="2.15385" height="2.15385" transform="rotate(90 15.5768 8.61523)" fill="black"/>
<rect x="13.4232" y="8.61523" width="2.15385" height="2.15385" transform="rotate(90 13.4232 8.61523)" fill="black"/>
<rect x="11.2695" y="8.61523" width="2.15385" height="2.15385" transform="rotate(90 11.2695 8.61523)" fill="black"/>
<rect x="9.11584" y="8.61523" width="2.15385" height="2.15385" transform="rotate(90 9.11584 8.61523)" fill="black"/>
<rect x="6.96094" y="8.61523" width="2.15385" height="2.15385" transform="rotate(90 6.96094 8.61523)" fill="black"/>
<rect x="24.1927" y="15.0768" width="2.15385" height="2.15385" transform="rotate(90 24.1927 15.0768)" fill="black"/>
<rect x="22.0391" y="15.0768" width="2.15385" height="2.15385" transform="rotate(90 22.0391 15.0768)" fill="black"/>
<rect x="19.8842" y="15.0768" width="2.15385" height="2.15385" transform="rotate(90 19.8842 15.0768)" fill="black"/>
<rect x="17.7305" y="15.0768" width="2.15385" height="2.15385" transform="rotate(90 17.7305 15.0768)" fill="black"/>
<rect x="15.5768" y="15.0768" width="2.15385" height="2.15385" transform="rotate(90 15.5768 15.0768)" fill="black"/>
<rect x="13.4232" y="15.0768" width="2.15385" height="2.15385" transform="rotate(90 13.4232 15.0768)" fill="black"/>
<rect x="11.2695" y="15.0768" width="2.15385" height="2.15385" transform="rotate(90 11.2695 15.0768)" fill="black"/>
<rect x="9.11584" y="15.0768" width="2.15385" height="2.15385" transform="rotate(90 9.11584 15.0768)" fill="black"/>
<rect x="6.96094" y="15.0768" width="2.15385" height="2.15385" transform="rotate(90 6.96094 15.0768)" fill="black"/>
<rect x="24.1927" y="17.2308" width="2.15385" height="2.15385" transform="rotate(90 24.1927 17.2308)" fill="black"/>
<rect x="6.96094" y="17.2308" width="2.15385" height="2.15385" transform="rotate(90 6.96094 17.2308)" fill="black"/>
<rect x="24.1927" y="19.3848" width="2.15385" height="2.15385" transform="rotate(90 24.1927 19.3848)" fill="black"/>
<rect x="6.96094" y="19.3848" width="2.15385" height="2.15385" transform="rotate(90 6.96094 19.3848)" fill="black"/>
<rect x="24.1927" y="21.5384" width="2.15385" height="2.15385" transform="rotate(90 24.1927 21.5384)" fill="black"/>
<rect x="6.96094" y="21.5384" width="2.15385" height="2.15385" transform="rotate(90 6.96094 21.5384)" fill="black"/>
<rect x="6.96094" y="23.6924" width="2.15385" height="2.15385" transform="rotate(90 6.96094 23.6924)" fill="black"/>
<rect x="24.1927" y="23.6924" width="2.15385" height="2.15385" transform="rotate(90 24.1927 23.6924)" fill="black"/>
<rect x="26.3463" y="25.846" width="2.15385" height="2.15385" transform="rotate(90 26.3463 25.846)" fill="black"/>
<rect x="24.1927" y="25.846" width="2.15385" height="2.15385" transform="rotate(90 24.1927 25.846)" fill="black"/>
<rect x="22.0391" y="25.846" width="2.15385" height="2.15385" transform="rotate(90 22.0391 25.846)" fill="black"/>
<rect x="19.8842" y="25.846" width="2.15385" height="2.15385" transform="rotate(90 19.8842 25.846)" fill="black"/>
<rect x="17.7305" y="25.846" width="2.15385" height="2.15385" transform="rotate(90 17.7305 25.846)" fill="black"/>
<rect x="15.5768" y="25.846" width="2.15385" height="2.15385" transform="rotate(90 15.5768 25.846)" fill="black"/>
<rect x="13.4232" y="25.846" width="2.15385" height="2.15385" transform="rotate(90 13.4232 25.846)" fill="black"/>
<rect x="11.2695" y="25.846" width="2.15385" height="2.15385" transform="rotate(90 11.2695 25.846)" fill="black"/>
<rect x="9.11584" y="25.846" width="2.15385" height="2.15385" transform="rotate(90 9.11584 25.846)" fill="black"/>
<rect x="6.96094" y="25.846" width="2.15385" height="2.15385" transform="rotate(90 6.96094 25.846)" fill="black"/>
<rect x="4.80725" y="25.846" width="2.15385" height="2.15385" transform="rotate(90 4.80725 25.846)" fill="black"/>
<rect x="28.5" y="28" width="2.15385" height="2.15385" transform="rotate(-180 28.5 28)" fill="black"/>
<rect x="28.5" y="25.846" width="2.15385" height="2.15385" transform="rotate(-180 28.5 25.846)" fill="black"/>
<rect x="28.5" y="23.6924" width="2.15385" height="2.15385" transform="rotate(-180 28.5 23.6924)" fill="black"/>
<rect x="28.5" y="21.5384" width="2.15385" height="2.15385" transform="rotate(-180 28.5 21.5384)" fill="black"/>
<rect x="28.5" y="19.3848" width="2.15385" height="2.15385" transform="rotate(-180 28.5 19.3848)" fill="black"/>
<rect x="28.5" y="17.2308" width="2.15385" height="2.15385" transform="rotate(-180 28.5 17.2308)" fill="black"/>
<rect x="28.5" y="15.0768" width="2.15385" height="2.15385" transform="rotate(-180 28.5 15.0768)" fill="black"/>
<rect x="28.5" y="12.9232" width="2.15385" height="2.15385" transform="rotate(-180 28.5 12.9232)" fill="black"/>
<rect x="28.5" y="10.7692" width="2.15385" height="2.15385" transform="rotate(-180 28.5 10.7692)" fill="black"/>
<rect x="28.5" y="8.61523" width="2.15385" height="2.15385" transform="rotate(-180 28.5 8.61523)" fill="black"/>
<rect x="28.5" y="6.46158" width="2.15385" height="2.15385" transform="rotate(-180 28.5 6.46158)" fill="black"/>
</symbol>
</svg>
